<svg width="60" height="60" viewBox="0 0 60 60" fill="none" xmlns="http://www.w3.org/2000/svg">
<path d="M30 0C13.4277 0 0 13.4277 0 30C0 46.5723 13.4277 60 30 60C46.5723 60 60 46.5723 60 30C60 13.4277 46.5723 0 30 0ZM18.6161 43.1103C18.432 43.4243 18.1685 43.6842 17.852 43.8641C17.5356 44.0439 17.1774 44.1373 16.8134 44.1348C16.4424 44.138 16.0779 44.0379 15.7607 43.8455C15.5245 43.7087 15.3177 43.5265 15.1521 43.3095C14.9865 43.0925 14.8654 42.8449 14.7957 42.581C14.726 42.3171 14.7091 42.042 14.746 41.7715C14.7829 41.501 14.8729 41.2405 15.0107 41.0049L17.0585 37.6004C17.162 37.4247 17.3096 37.2791 17.4867 37.1781C17.6639 37.0771 17.8644 37.0241 18.0683 37.0246H18.371C19.8562 37.0246 20.8955 37.9179 21.1982 38.783L18.6161 43.1103ZM35.9531 36.4138L22.5429 36.4286H13.6299C13.3495 36.4298 13.0717 36.374 12.8135 36.2646C12.5553 36.1552 12.322 35.9945 12.1278 35.7923C11.9335 35.59 11.7824 35.3504 11.6835 35.088C11.5847 34.8255 11.5402 34.5458 11.5527 34.2656C11.5955 33.1406 12.5772 32.2888 13.6955 32.2888H20.1562L27.8156 19.2509L25.3353 15.0254C24.7768 14.0625 25.0246 12.7929 25.9821 12.1875C26.2182 12.0348 26.4827 11.9315 26.7598 11.8836C27.0368 11.8358 27.3207 11.8445 27.5943 11.9092C27.8679 11.9738 28.1256 12.0932 28.3519 12.26C28.5782 12.4268 28.7684 12.6377 28.9112 12.8799L30.2371 15.1446H30.2518L31.579 12.8799C31.7219 12.6389 31.9118 12.4292 32.1375 12.2632C32.3632 12.0972 32.62 11.9784 32.8926 11.9138C33.1651 11.8492 33.448 11.8401 33.7241 11.8871C34.0003 11.9341 34.2642 12.0363 34.5 12.1875C35.4522 12.7929 35.6973 14.0625 35.1348 15.0295L32.6545 19.2549L30.2437 23.3652L25.0085 32.2929V32.3076H32.7241C33.6911 32.3076 34.9031 32.8272 35.3933 33.6629L35.4362 33.75C35.8687 34.4853 36.1138 34.9902 36.1138 35.7254C36.1068 35.9642 36.0536 36.1993 35.9571 36.4179L35.9531 36.4138ZM46.3661 36.4286H42.7353V36.4433L45.3897 40.958C45.6752 41.4335 45.7626 42.0021 45.6331 42.5414C45.5036 43.0806 45.1676 43.5475 44.6973 43.8415C44.3713 44.0403 43.997 44.1454 43.6152 44.1455C43.2522 44.1454 42.8954 44.0513 42.5795 43.8725C42.2637 43.6937 41.9994 43.4362 41.8125 43.125L37.8897 36.4473L35.4522 32.2955L32.3076 26.9196C31.8521 26.152 31.6045 25.279 31.5893 24.3865C31.574 23.4941 31.7916 22.6131 32.2205 21.8304C32.842 20.7335 33.3174 20.4455 33.3174 20.4455L40.3125 32.2768H46.3272C47.4522 32.2768 48.4179 33.142 48.4701 34.2522C48.4809 34.5345 48.4346 34.8161 48.3339 35.08C48.2331 35.3439 48.0801 35.5847 47.8839 35.788C47.6878 35.9913 47.4526 36.1528 47.1924 36.2629C46.9323 36.373 46.6526 36.4293 46.3701 36.4286H46.3661Z" fill="url(#paint0_linear_20_64)"/>
<defs>
<linearGradient id="paint0_linear_20_64" x1="30" y1="0" x2="30" y2="60" gradientUnits="userSpaceOnUse">
<stop stop-color="#15C9FB"/>
<stop offset="1" stop-color="#1977F3"/>
</linearGradient>
</defs>
</svg>
